<svg width="171" height="40" viewBox="0 0 171 40" fill="none" xmlns="http://www.w3.org/2000/svg">
<circle cx="20" cy="20" r="20" fill="url(#paint0_linear_315_255)"/>
<path d="M19.47 26.756H20.226C20.352 25.982 20.694 25.136 21.27 24.218C22.422 22.4 24.744 20.618 26.742 20.204V19.448C25.752 19.232 24.78 18.782 23.844 18.116C21.936 16.766 20.532 14.75 20.226 12.932H19.47C19.29 13.886 18.876 14.804 18.228 15.74C16.95 17.594 14.952 18.962 12.918 19.448V20.204C13.944 20.42 14.988 20.924 16.014 21.698C18.102 23.264 19.2 25.208 19.47 26.756Z" fill="white"/>
<path d="M53.4141 26V14.7266H55.1641V26H53.4141ZM57.7969 26V17.5156H59.4922V18.7969H59.625C59.8333 18.3438 60.1406 17.9896 60.5469 17.7344C60.9531 17.4792 61.4661 17.3516 62.0859 17.3516C63.0391 17.3516 63.7682 17.625 64.2734 18.1719C64.7786 18.7188 65.0312 19.4974 65.0312 20.5078V26H63.3281V20.9062C63.3281 20.1979 63.1797 19.6719 62.8828 19.3281C62.5911 18.9792 62.1328 18.8047 61.5078 18.8047C61.0964 18.8047 60.7396 18.8958 60.4375 19.0781C60.1354 19.2552 59.901 19.5104 59.7344 19.8438C59.5729 20.1719 59.4922 20.5651 59.4922 21.0234V26H57.7969ZM70.4766 26.1641C69.7943 26.1641 69.2005 26.0651 68.6953 25.8672C68.1901 25.6641 67.7891 25.3854 67.4922 25.0312C67.1953 24.6719 67.0208 24.2552 66.9688 23.7812V23.7656H68.6719V23.7812C68.7812 24.099 68.9896 24.3568 69.2969 24.5547C69.6042 24.7526 70.0104 24.8516 70.5156 24.8516C70.8646 24.8516 71.1693 24.8021 71.4297 24.7031C71.6953 24.6042 71.9036 24.4661 72.0547 24.2891C72.2057 24.112 72.2812 23.9089 72.2812 23.6797V23.6641C72.2812 23.3984 72.1745 23.1745 71.9609 22.9922C71.7474 22.8099 71.3958 22.6615 70.9062 22.5469L69.5469 22.2344C69.0156 22.1146 68.5755 21.9505 68.2266 21.7422C67.8776 21.5339 67.6198 21.2786 67.4531 20.9766C67.2865 20.6693 67.2031 20.3099 67.2031 19.8984V19.8906C67.2031 19.3958 67.3438 18.9583 67.625 18.5781C67.9062 18.1927 68.2943 17.8932 68.7891 17.6797C69.2891 17.4609 69.8594 17.3516 70.5 17.3516C71.1458 17.3516 71.7083 17.4531 72.1875 17.6562C72.6719 17.8542 73.0547 18.1302 73.3359 18.4844C73.6172 18.8333 73.7839 19.2396 73.8359 19.7031V19.7109H72.2109V19.6953C72.1328 19.3984 71.9453 19.151 71.6484 18.9531C71.3568 18.7552 70.9714 18.6562 70.4922 18.6562C70.1849 18.6562 69.9115 18.7057 69.6719 18.8047C69.4323 18.8984 69.2422 19.0312 69.1016 19.2031C68.9661 19.3698 68.8984 19.5677 68.8984 19.7969V19.8125C68.8984 19.9896 68.9427 20.1458 69.0312 20.2812C69.125 20.4115 69.2708 20.5286 69.4688 20.6328C69.6667 20.7318 69.9219 20.8203 70.2344 20.8984L71.5859 21.2031C72.3984 21.3958 73.0026 21.6745 73.3984 22.0391C73.7995 22.4036 74 22.8932 74 23.5078V23.5234C74 24.0443 73.8464 24.5052 73.5391 24.9062C73.2318 25.3021 72.8125 25.612 72.2812 25.8359C71.7552 26.0547 71.1536 26.1641 70.4766 26.1641ZM79.1562 26.0547C78.2292 26.0547 77.5573 25.8776 77.1406 25.5234C76.7292 25.1641 76.5234 24.5781 76.5234 23.7656V18.8516H75.1953V17.5156H76.5234V15.375H78.2578V17.5156H80.0781V18.8516H78.2578V23.3516C78.2578 23.8099 78.349 24.1406 78.5312 24.3438C78.7135 24.5417 79.0156 24.6406 79.4375 24.6406C79.5625 24.6406 79.6693 24.638 79.7578 24.6328C79.8516 24.6276 79.9583 24.6198 80.0781 24.6094V25.9688C79.9427 25.9896 79.7969 26.0078 79.6406 26.0234C79.4844 26.0443 79.3229 26.0547 79.1562 26.0547ZM84.3906 26.1406C83.8542 26.1406 83.3724 26.0391 82.9453 25.8359C82.5234 25.6276 82.1901 25.3333 81.9453 24.9531C81.7005 24.5729 81.5781 24.1276 81.5781 23.6172V23.6016C81.5781 23.0911 81.7005 22.6562 81.9453 22.2969C82.1953 21.9375 82.5547 21.6562 83.0234 21.4531C83.4974 21.2448 84.0703 21.1198 84.7422 21.0781L87.875 20.8906V22.0859L84.9766 22.2734C84.3932 22.3099 83.9635 22.4349 83.6875 22.6484C83.4115 22.8568 83.2734 23.151 83.2734 23.5312V23.5469C83.2734 23.9323 83.4219 24.237 83.7188 24.4609C84.0156 24.6797 84.3906 24.7891 84.8438 24.7891C85.2656 24.7891 85.6406 24.7057 85.9688 24.5391C86.3021 24.3672 86.5625 24.138 86.75 23.8516C86.9375 23.5599 87.0312 23.2318 87.0312 22.8672V20.1953C87.0312 19.7266 86.8854 19.3698 86.5938 19.125C86.3073 18.875 85.8802 18.75 85.3125 18.75C84.8385 18.75 84.4505 18.8333 84.1484 19C83.8516 19.1667 83.6536 19.401 83.5547 19.7031L83.5391 19.7266H81.9062L81.9141 19.6719C81.9818 19.2031 82.1667 18.7969 82.4688 18.4531C82.776 18.1042 83.1771 17.8333 83.6719 17.6406C84.1719 17.4479 84.7422 17.3516 85.3828 17.3516C86.0964 17.3516 86.7005 17.4661 87.1953 17.6953C87.6953 17.9193 88.0729 18.2448 88.3281 18.6719C88.5885 19.0938 88.7188 19.6016 88.7188 20.1953V26H87.0312V24.7969H86.9062C86.7396 25.0833 86.5312 25.3281 86.2812 25.5312C86.0312 25.7292 85.7474 25.8802 85.4297 25.9844C85.112 26.0885 84.7656 26.1406 84.3906 26.1406ZM91.1094 26V17.5156H92.8047V18.7969H92.9375C93.1458 18.3438 93.4531 17.9896 93.8594 17.7344C94.2656 17.4792 94.7786 17.3516 95.3984 17.3516C96.3516 17.3516 97.0807 17.625 97.5859 18.1719C98.0911 18.7188 98.3438 19.4974 98.3438 20.5078V26H96.6406V20.9062C96.6406 20.1979 96.4922 19.6719 96.1953 19.3281C95.9036 18.9792 95.4453 18.8047 94.8203 18.8047C94.4089 18.8047 94.0521 18.8958 93.75 19.0781C93.4479 19.2552 93.2135 19.5104 93.0469 19.8438C92.8854 20.1719 92.8047 20.5651 92.8047 21.0234V26H91.1094ZM103.906 26.0547C102.979 26.0547 102.307 25.8776 101.891 25.5234C101.479 25.1641 101.273 24.5781 101.273 23.7656V18.8516H99.9453V17.5156H101.273V15.375H103.008V17.5156H104.828V18.8516H103.008V23.3516C103.008 23.8099 103.099 24.1406 103.281 24.3438C103.464 24.5417 103.766 24.6406 104.188 24.6406C104.312 24.6406 104.419 24.638 104.508 24.6328C104.602 24.6276 104.708 24.6198 104.828 24.6094V25.9688C104.693 25.9896 104.547 26.0078 104.391 26.0234C104.234 26.0443 104.073 26.0547 103.906 26.0547ZM115.18 26.2734C114.331 26.2734 113.591 26.1406 112.961 25.875C112.331 25.6042 111.833 25.2292 111.469 24.75C111.104 24.2708 110.896 23.7161 110.844 23.0859L110.836 22.9844H112.562L112.57 23.0703C112.607 23.4089 112.74 23.7031 112.969 23.9531C113.203 24.2031 113.516 24.3984 113.906 24.5391C114.302 24.6797 114.753 24.75 115.258 24.75C115.732 24.75 116.154 24.6745 116.523 24.5234C116.893 24.3724 117.182 24.1641 117.391 23.8984C117.604 23.6328 117.711 23.3281 117.711 22.9844V22.9766C117.711 22.5443 117.547 22.1849 117.219 21.8984C116.891 21.612 116.354 21.388 115.609 21.2266L114.375 20.9688C113.234 20.724 112.404 20.3359 111.883 19.8047C111.362 19.2682 111.102 18.5833 111.102 17.75V17.7422C111.107 17.0911 111.281 16.5182 111.625 16.0234C111.974 15.5286 112.456 15.1432 113.07 14.8672C113.685 14.5911 114.391 14.4531 115.188 14.4531C115.984 14.4531 116.68 14.5911 117.273 14.8672C117.872 15.138 118.344 15.5078 118.688 15.9766C119.036 16.4453 119.232 16.974 119.273 17.5625L119.281 17.6641H117.57L117.555 17.5625C117.508 17.2552 117.38 16.9818 117.172 16.7422C116.969 16.5026 116.695 16.3151 116.352 16.1797C116.013 16.0391 115.617 15.9714 115.164 15.9766C114.727 15.9766 114.336 16.0443 113.992 16.1797C113.648 16.3099 113.375 16.5 113.172 16.75C112.974 17 112.875 17.3021 112.875 17.6562V17.6641C112.875 18.0807 113.034 18.4297 113.352 18.7109C113.674 18.987 114.198 19.2031 114.922 19.3594L116.156 19.6328C116.943 19.7995 117.581 20.0208 118.07 20.2969C118.56 20.5729 118.917 20.9141 119.141 21.3203C119.37 21.7214 119.484 22.2005 119.484 22.7578V22.7656C119.484 23.4844 119.307 24.1068 118.953 24.6328C118.604 25.1536 118.107 25.5573 117.461 25.8438C116.815 26.1302 116.055 26.2734 115.18 26.2734ZM125.164 26.1641C124.341 26.1641 123.63 25.987 123.031 25.6328C122.438 25.2734 121.979 24.763 121.656 24.1016C121.333 23.4401 121.172 22.651 121.172 21.7344V21.7188C121.172 20.8177 121.331 20.0417 121.648 19.3906C121.971 18.7396 122.43 18.237 123.023 17.8828C123.622 17.5286 124.333 17.3516 125.156 17.3516C125.87 17.3516 126.482 17.4766 126.992 17.7266C127.508 17.9714 127.917 18.3099 128.219 18.7422C128.526 19.1693 128.719 19.6562 128.797 20.2031L128.805 20.2422H127.172L127.164 20.2266C127.07 19.8099 126.854 19.4635 126.516 19.1875C126.177 18.9062 125.727 18.7656 125.164 18.7656C124.695 18.7656 124.292 18.8854 123.953 19.125C123.615 19.3594 123.354 19.6979 123.172 20.1406C122.995 20.5833 122.906 21.1094 122.906 21.7188V21.7344C122.906 22.3594 122.997 22.8958 123.18 23.3438C123.362 23.7917 123.622 24.138 123.961 24.3828C124.299 24.6224 124.701 24.7422 125.164 24.7422C125.695 24.7422 126.125 24.625 126.453 24.3906C126.786 24.1562 127.021 23.8099 127.156 23.3516L127.172 23.3125L128.797 23.3047L128.781 23.375C128.682 23.9271 128.482 24.4115 128.18 24.8281C127.878 25.2448 127.474 25.5729 126.969 25.8125C126.469 26.0469 125.867 26.1641 125.164 26.1641ZM130.719 26V17.5156H132.414V18.7969H132.547C132.698 18.3438 132.964 17.9922 133.344 17.7422C133.729 17.4922 134.203 17.3672 134.766 17.3672C134.906 17.3672 135.044 17.375 135.18 17.3906C135.315 17.4062 135.424 17.4245 135.508 17.4453V19.0078C135.357 18.9766 135.206 18.9531 135.055 18.9375C134.909 18.9219 134.755 18.9141 134.594 18.9141C134.161 18.9141 133.781 18.9974 133.453 19.1641C133.13 19.3307 132.875 19.5651 132.688 19.8672C132.505 20.1641 132.414 20.5182 132.414 20.9297V26H130.719ZM139.406 26.1406C138.87 26.1406 138.388 26.0391 137.961 25.8359C137.539 25.6276 137.206 25.3333 136.961 24.9531C136.716 24.5729 136.594 24.1276 136.594 23.6172V23.6016C136.594 23.0911 136.716 22.6562 136.961 22.2969C137.211 21.9375 137.57 21.6562 138.039 21.4531C138.513 21.2448 139.086 21.1198 139.758 21.0781L142.891 20.8906V22.0859L139.992 22.2734C139.409 22.3099 138.979 22.4349 138.703 22.6484C138.427 22.8568 138.289 23.151 138.289 23.5312V23.5469C138.289 23.9323 138.438 24.237 138.734 24.4609C139.031 24.6797 139.406 24.7891 139.859 24.7891C140.281 24.7891 140.656 24.7057 140.984 24.5391C141.318 24.3672 141.578 24.138 141.766 23.8516C141.953 23.5599 142.047 23.2318 142.047 22.8672V20.1953C142.047 19.7266 141.901 19.3698 141.609 19.125C141.323 18.875 140.896 18.75 140.328 18.75C139.854 18.75 139.466 18.8333 139.164 19C138.867 19.1667 138.669 19.401 138.57 19.7031L138.555 19.7266H136.922L136.93 19.6719C136.997 19.2031 137.182 18.7969 137.484 18.4531C137.792 18.1042 138.193 17.8333 138.688 17.6406C139.188 17.4479 139.758 17.3516 140.398 17.3516C141.112 17.3516 141.716 17.4661 142.211 17.6953C142.711 17.9193 143.089 18.2448 143.344 18.6719C143.604 19.0938 143.734 19.6016 143.734 20.1953V26H142.047V24.7969H141.922C141.755 25.0833 141.547 25.3281 141.297 25.5312C141.047 25.7292 140.763 25.8802 140.445 25.9844C140.128 26.0885 139.781 26.1406 139.406 26.1406ZM146.125 28.8281V17.5156H147.82V18.8516H147.953C148.115 18.5391 148.323 18.2734 148.578 18.0547C148.839 17.8359 149.135 17.6667 149.469 17.5469C149.802 17.4271 150.167 17.3672 150.562 17.3672C151.276 17.3672 151.896 17.5495 152.422 17.9141C152.948 18.2734 153.354 18.7812 153.641 19.4375C153.932 20.0885 154.078 20.8594 154.078 21.75V21.7656C154.078 22.6615 153.935 23.4375 153.648 24.0938C153.362 24.7448 152.956 25.25 152.43 25.6094C151.904 25.9635 151.281 26.1406 150.562 26.1406C150.172 26.1406 149.807 26.0807 149.469 25.9609C149.13 25.8359 148.831 25.6641 148.57 25.4453C148.31 25.2266 148.104 24.9635 147.953 24.6562H147.82V28.8281H146.125ZM150.078 24.6875C150.552 24.6875 150.958 24.5703 151.297 24.3359C151.635 24.1016 151.893 23.7656 152.07 23.3281C152.253 22.8906 152.344 22.3698 152.344 21.7656V21.75C152.344 21.1406 152.253 20.6172 152.07 20.1797C151.893 19.7422 151.635 19.4062 151.297 19.1719C150.958 18.9375 150.552 18.8203 150.078 18.8203C149.609 18.8203 149.203 18.9401 148.859 19.1797C148.516 19.4141 148.253 19.75 148.07 20.1875C147.888 20.6198 147.797 21.1406 147.797 21.75V21.7656C147.797 22.3646 147.888 22.8828 148.07 23.3203C148.253 23.7578 148.516 24.0964 148.859 24.3359C149.203 24.5703 149.609 24.6875 150.078 24.6875ZM159.672 26.1641C158.844 26.1641 158.133 25.987 157.539 25.6328C156.945 25.2734 156.487 24.7656 156.164 24.1094C155.846 23.4531 155.688 22.6771 155.688 21.7812V21.7734C155.688 20.888 155.846 20.1146 156.164 19.4531C156.487 18.7917 156.94 18.276 157.523 17.9062C158.112 17.5365 158.799 17.3516 159.586 17.3516C160.378 17.3516 161.057 17.5286 161.625 17.8828C162.198 18.237 162.638 18.7344 162.945 19.375C163.253 20.0104 163.406 20.7552 163.406 21.6094V22.2031H156.547V20.9922H162.562L161.75 22.1172V21.4375C161.75 20.8333 161.656 20.3333 161.469 19.9375C161.286 19.5365 161.034 19.237 160.711 19.0391C160.388 18.8411 160.016 18.7422 159.594 18.7422C159.172 18.7422 158.794 18.8464 158.461 19.0547C158.133 19.2578 157.872 19.5599 157.68 19.9609C157.492 20.362 157.398 20.8542 157.398 21.4375V22.1172C157.398 22.6745 157.492 23.151 157.68 23.5469C157.867 23.9427 158.133 24.2448 158.477 24.4531C158.826 24.6615 159.237 24.7656 159.711 24.7656C160.076 24.7656 160.388 24.7161 160.648 24.6172C160.914 24.513 161.13 24.3854 161.297 24.2344C161.469 24.0833 161.586 23.9349 161.648 23.7891L161.68 23.7266H163.32L163.305 23.7969C163.232 24.0781 163.104 24.3594 162.922 24.6406C162.74 24.9167 162.497 25.1693 162.195 25.3984C161.898 25.6276 161.539 25.8125 161.117 25.9531C160.701 26.0938 160.219 26.1641 159.672 26.1641ZM165.422 26V17.5156H167.117V18.7969H167.25C167.401 18.3438 167.667 17.9922 168.047 17.7422C168.432 17.4922 168.906 17.3672 169.469 17.3672C169.609 17.3672 169.747 17.375 169.883 17.3906C170.018 17.4062 170.128 17.4245 170.211 17.4453V19.0078C170.06 18.9766 169.909 18.9531 169.758 18.9375C169.612 18.9219 169.458 18.9141 169.297 18.9141C168.865 18.9141 168.484 18.9974 168.156 19.1641C167.833 19.3307 167.578 19.5651 167.391 19.8672C167.208 20.1641 167.117 20.5182 167.117 20.9297V26H165.422Z" fill="#E5E5E5"/>
<defs>
<linearGradient id="paint0_linear_315_255" x1="0" y1="20" x2="40" y2="20" gradientUnits="userSpaceOnUse">
<stop stop-color="#0A84FF"/>
<stop offset="1" stop-color="#5E5CE6"/>
</linearGradient>
</defs>
</svg>
